<svg xmlns="http://www.w3.org/2000/svg" width="171.457" height="171.457" fill="none" viewBox="0 0 171.457 171.457"><path fill="#000" d="M171.457 85.729c0 15.552-3.833 29.895-11.5 43.028s-18.066 23.533-31.2 31.2c-13.133 7.667-27.476 11.5-43.028 11.5-15.553 0-29.896-3.833-43.029-11.5-13.133-7.667-23.533-18.067-31.2-31.2C3.833 115.624 0 101.281 0 85.729 0 70.176 3.833 55.833 11.5 42.7c7.667-13.133 18.067-23.533 31.2-31.2C55.833 3.833 70.176 0 85.729 0c15.552 0 29.895 3.833 43.028 11.5 13.134 7.667 23.533 18.067 31.2 31.2 7.667 13.133 11.5 27.476 11.5 43.029Z"/></svg>