<svg xmlns="http://www.w3.org/2000/svg" width="200" height="52" fill="none" viewBox="0 0 960 250"><defs><linearGradient id="d" x1="25" x2="25" y1="275" y2="25" gradientUnits="userSpaceOnUse"><stop stop-color="#FF5857"/><stop offset="1" stop-color="#F09819"/></linearGradient><linearGradient id="f" x1="622.877" x2="622.877" y1="51.941" y2="198.059" gradientUnits="userSpaceOnUse"><stop stop-color="#F0961A"/><stop offset="1" stop-color="#FF5800"/></linearGradient><filter id="a" width="250" height="250" x="0" y="0" color-interpolation-filters="sRGB" filterUnits="userSpaceOnUse"><feFlood flood-opacity="0" result="BackgroundImageFix"/><feBlend in="SourceGraphic" in2="BackgroundImageFix" result="shape"/><feColorMatrix in="SourceAlpha" result="hardAlpha" values="0 0 0 0 0 0 0 0 0 0 0 0 0 0 0 0 0 0 127 0"/><feOffset dy="4"/><feGaussianBlur stdDeviation="1.333"/><feComposite in2="hardAlpha" k2="-1" k3="1" operator="arithmetic"/><feColorMatrix values="0 0 0 0 0 0 0 0 0 0 0 0 0 0 0 0 0 0 0.25 0"/><feBlend in2="shape" result="effect_innerShadow_1"/></filter><filter id="e" width="674.246" height="146.118" x="285.754" y="51.941" color-interpolation-filters="sRGB" filterUnits="userSpaceOnUse"><feFlood flood-opacity="0" result="BackgroundImageFix"/><feBlend in="SourceGraphic" in2="BackgroundImageFix" result="shape"/><feColorMatrix in="SourceAlpha" result="hardAlpha" values="0 0 0 0 0 0 0 0 0 0 0 0 0 0 0 0 0 0 127 0"/><feOffset dy="4"/><feGaussianBlur stdDeviation="1.333"/><feComposite in2="hardAlpha" k2="-1" k3="1" operator="arithmetic"/><feColorMatrix values="0 0 0 0 0 0 0 0 0 0 0 0 0 0 0 0 0 0 0.25 0"/><feBlend in2="shape" result="effect_innerShadow_1"/></filter></defs><g filter="url(#a)"><mask id="b" width="250" height="250" x="0" y="0" mask-type="alpha" maskUnits="userSpaceOnUse"><path fill="#000" d="M0 0h250v250H0V0Z"/></mask><g mask="url(#b)"><mask id="c" width="200" height="200" x="25" y="25" mask-type="alpha" maskUnits="userSpaceOnUse"><path fill="#FF5800" fill-rule="evenodd" d="m190.136 58.205-17.108 66.41h-46.769L70.936 25l119.2 33.205Z"/><path fill="red" fill-rule="evenodd" d="m137.738 225-46.769-48.624 23.385-42.098H225L137.738 225Z"/><path fill="#00F" fill-rule="evenodd" d="m25 94.413 63.877-17.787 23.385 42.099-55.324 99.615L25 94.413Z"/></mask><g mask="url(#c)"><path fill="url(#d)" fill-rule="evenodd" d="M25 25h250v250H25V25Z"/></g></g></g><g filter="url(#e)"><path fill="url(#f)" fill-rule="evenodd" d="M530.139 64.28q0 5.65-2.816 8.698-.12.13-.245.254-.119.121-.242.237l-.003.002q-3.005 2.823-8.662 2.823h-.371c-3.927 0-6.911-1.02-8.952-3.062-2.011-2.04-3.016-5.025-3.016-8.952v-.371c0-3.928 1.005-6.896 3.016-8.907 2.041-2.04 5.025-3.061 8.952-3.061h.371q5.657 0 8.662 2.823h.001q.124.117.244.238.121.12.238.245 2.823 3.005 2.823 8.662v.37Zm229.9 0q0 5.65-2.816 8.698-.12.13-.245.254-.12.122-.245.24-3.005 2.822-8.662 2.822h-.371c-3.927 0-6.911-1.02-8.952-3.062-2.011-2.04-3.016-5.025-3.016-8.952v-.371c0-3.928 1.005-6.896 3.016-8.907 2.041-2.04 5.025-3.061 8.952-3.061h.371q5.657 0 8.662 2.823.125.117.245.238.116.115.228.234l.01.01q2.823 3.006 2.823 8.663v.37ZM614.891 169.16c-.976-1.95-1.463-3.76-1.463-5.429 0-1.56.426-2.997 1.277-4.312 1.763-2.752 4.747-4.438 8.953-5.056l1.299-.186c3.432-.526 6.215-.046 8.349 1.438 2.165 1.454 4.453 3.943 6.865 7.468 3.278 4.825 7.994 8.288 14.148 10.391 6.154 2.072 12.355 2.289 18.601.65q4.969-1.298 8.8-4.131 3.431-2.538 5.951-6.306 3.433-5.149 3.619-10.345c.006-.194.01-.387.01-.579 0-3.263-.993-6.209-2.979-8.837-2.072-2.783-5.01-4.871-8.814-6.262-2.907-1.021-8.488-2.103-16.745-3.247-1.639-.124-6.061-.758-13.267-1.902-9.246-1.639-16.792-6.232-22.637-13.777-5.813-7.546-8.72-16.127-8.72-25.745q0-6.734 2.153-12.69 2.459-6.803 7.727-12.59 3.466-3.872 7.622-6.746 7.247-5.01 16.592-6.985 6.165-1.323 12.298-1.185 8.494.19 16.926 3.18c9.71 3.401 17.673 9.339 23.889 17.812q2.621 3.676 2.621 6.933 0 .63-.098 1.245-.131.819-.436 1.61c-1.144 2.968-3.618 5.226-7.422 6.772l-.927.371c-3.433 1.392-6.417 1.546-8.953.464-2.536-1.082-5.195-3.263-7.979-6.54q-4.044-4.694-9.156-6.813l-.005-.002q-1.1-.456-2.25-.793-3.488-1.029-6.949-.944-2.937.071-5.853.944c-4.237 1.268-7.886 3.603-10.948 7.004q-2.88 3.169-3.773 6.822-.402 1.643-.402 3.384 0 2.323.631 4.46.879 2.984 2.988 5.606c2.412 2.968 5.581 4.963 9.509 5.983 1.391.372 3.216.712 5.474 1.021 2.288.309 4.576.603 6.865.881 8.875.742 15.586 1.933 20.132 3.572 9.648 3.556 16.9 8.767 21.755 15.632 4.707 6.585 7.061 13.843 7.061 21.777 0 .301-.004.603-.01.906q-.062 2.769-.497 5.478-1.517 9.454-7.575 18.18c-6.834 10.112-16.745 16.436-29.733 18.972q-9.186 1.793-18.166 1.06-10.065-.821-19.872-4.817c-12.338-5.072-21.167-13.004-26.486-23.797Zm-282.7-38.176c-3.927-.371-6.85-1.469-8.767-3.294-1.887-1.855-2.83-4.561-2.83-8.117v-.928q0-5.198 2.599-7.842l.006-.005q.065-.067.132-.131 2.783-2.645 8.674-3.619 7.19-1.159 11.458-4.917 2.633-2.321 3.659-5.213.655-1.846.655-3.925c0-3.154-.634-5.875-1.902-8.164-1.268-2.288-3.139-4.035-5.613-5.242q-3.711-1.809-8.86-1.809c-2.257 0-4.283.232-6.076.696-1.763.433-3.34 1.098-4.732 1.995l-3.432 2.644c-2.165 1.763-4.098 3.092-5.799 3.99-1.701.896-3.757 1.344-6.169 1.344h-.928q-6.265 0-9.54-3.129-.507-.485-.943-1.046-.973-1.282-1.337-2.72-.218-.86-.218-1.776 0-2.587 1.74-5.616.599-1.005 1.252-1.974 3.295-4.885 7.979-8.834.508-.428 1.029-.84 5.235-4.14 11.774-6.628.868-.334 1.749-.628h.001q6.466-2.155 13.65-2.155 5.99 0 11.583 1.488 4.717 1.255 9.152 3.568c6.463 3.34 11.582 7.932 15.354 13.777q2.827 4.32 4.253 9.061 1.453 4.83 1.453 10.096 0 4.01-1.119 7.678-1.586 5.202-5.422 9.717-4.665 5.493-11.714 9.38 10.941 3.904 17.513 11.17 1.498 1.648 2.728 3.477 5.621 8.363 5.621 20.505 0 4.859-1.093 9.458-1.6 6.728-5.54 12.9c-4.422 6.896-10.344 12.401-17.766 16.514-7.422 4.113-15.308 6.169-23.657 6.169a48.943 48.943 0 0 1-19.668-4.082q-5.92-2.566-10.905-6.36-2.944-2.242-5.563-4.912-5.765-5.956-8.827-13.074-.659-1.531-1.192-3.115c-.559-1.578-.839-3.034-.839-4.367 0-1.985.62-3.699 1.859-5.142q.456-.523.977-.97 3.083-2.648 8.44-2.648h1.902c3.278 0 5.767.773 7.468 2.319q2.598 2.273 5.845 7.979c1.268 2.01 2.907 3.741 4.917 5.195q3.061 2.18 6.958 3.34c2.597.773 5.473 1.159 8.628 1.159 4.422 0 8.334-.85 11.735-2.551 3.433-1.732 6.093-4.144 7.979-7.236 1.917-3.124 2.876-6.649 2.876-10.576q0-6.477-2.872-11.214-1.241-2.047-3.019-3.769c-3.928-3.804-9.68-6.154-17.256-7.051Zm150.46-75.796c3.927 0 6.927 1.051 8.999 3.154 2.103 2.072 3.154 5.072 3.154 9v.37c0 3.928-1.051 6.943-3.154 9.046-2.072 2.072-5.072 3.108-8.999 3.108H457.37v103.581c0 4.051-1.082 7.159-3.247 9.324-2.134 2.134-5.226 3.201-9.277 3.201h-.371q-5.725 0-8.939-2.841l-.008-.007q-.193-.171-.377-.353c-2.165-2.165-3.247-5.273-3.247-9.324V79.866h-25.42q-5.539 0-8.658-2.747-.199-.175-.387-.361c-2.103-2.103-3.155-5.118-3.155-9.046v-.37c0-3.928 1.052-6.928 3.155-9q.237-.237.49-.457l.001-.001q3.108-2.696 8.554-2.696h76.167Zm352.831 116.477c3.927.619 6.834 1.886 8.72 3.804 1.918 1.886 2.876 4.608 2.876 8.164v.371c0 3.804-1.082 6.757-3.247 8.86-2.133 2.072-5.102 2.922-8.906 2.551q-19.761-2.273-29.084-12.432-1.022-1.118-1.932-2.322-7.392-9.774-7.392-25.139v-37.619h-7.561c-3.556 0-6.324-.974-8.303-2.923q-.314-.318-.594-.664-2.329-2.877-2.329-7.639v-.185q0-5.196 2.589-8.008l.007-.008q.159-.171.327-.334c1.979-1.917 4.747-2.876 8.303-2.876h7.561V75.134c0-3.927 1.005-6.896 3.015-8.906 2.041-2.041 5.025-3.061 8.953-3.061h.417q5.657 0 8.662 2.823l.024.022q.112.106.22.216.117.115.229.233l.01.011q2.823 3.005 2.823 8.662v20.132h14.983q5.285 0 8.104 2.637.125.117.245.24c1.918 1.885 2.876 4.669 2.876 8.349v.185c0 3.557-.958 6.324-2.876 8.303q-.166.172-.342.334-2.812 2.589-8.007 2.589H820.87v33.816c0 4.298.402 7.777 1.206 10.437.835 2.659 2.288 4.747 4.36 6.262 2.103 1.515 5.118 2.598 9.046 3.247Zm124.054-37.805q.464 2.255.464 4.256 0 3.639-1.533 6.44-.745 1.361-1.853 2.524c-3.092 3.216-7.561 4.824-13.406 4.824h-61.349c.506 3.958 1.505 7.437 2.995 10.437 2.288 4.546 5.767 7.994 10.437 10.345 4.7 2.35 10.607 3.525 17.72 3.525q2.63 0 5.155-.518h.001q2.194-.45 4.307-1.291c3.061-1.206 5.86-2.953 8.396-5.242 2.906-2.381 5.597-3.757 8.071-4.128 2.474-.402 5.102.355 7.886 2.273l.556.371c3.309 2.257 5.149 4.824 5.52 7.7.044.335.066.668.066 1 0 2.491-1.228 4.91-3.684 7.257-5.195 4.546-10.932 8.087-17.209 10.622-6.247 2.536-12.602 3.804-19.065 3.804-11.009 0-20.642-2.273-28.899-6.819-8.226-4.577-14.597-10.854-19.112-18.833-4.484-7.978-6.726-16.977-6.726-26.997 0-9.988 2.242-18.941 6.726-26.858 4.515-7.916 10.793-14.117 18.833-18.6 8.041-4.516 17.133-6.773 27.276-6.773 7.607 0 14.735 1.53 21.384 4.592 6.649 3.031 12.37 7.592 17.163 13.684q7.236 9.092 9.88 22.405Zm-429.397 50.144c0 3.927-1.02 6.912-3.061 8.953-2.011 2.01-4.979 3.015-8.907 3.015h-.371c-3.927 0-6.911-1.005-8.952-3.015-2.011-2.041-3.016-5.026-3.016-8.953v-76.77c0-3.927 1.005-6.896 3.016-8.906 2.041-2.041 5.025-3.062 8.952-3.062h.371q5.657 0 8.662 2.823.125.117.245.239.121.12.238.244 2.823 3.005 2.823 8.662v76.77Zm229.9 0c0 3.927-1.02 6.912-3.061 8.953-2.011 2.01-4.979 3.015-8.907 3.015h-.371c-3.927 0-6.911-1.005-8.952-3.015-2.011-2.041-3.016-5.026-3.016-8.953v-76.77c0-3.927 1.005-6.896 3.016-8.906 2.041-2.041 5.025-3.062 8.952-3.062h.371q5.657 0 8.662 2.823.125.117.245.239.115.114.227.232l.011.012q2.823 3.005 2.823 8.662v76.77Zm175.858-51.86c-.183-.491-.375-.97-.574-1.438-2.351-5.505-5.582-9.494-9.695-11.968s-8.953-3.711-14.519-3.711c-6.463 0-11.891 1.175-16.282 3.525-4.36 2.35-7.685 5.814-9.973 10.391a28.466 28.466 0 0 0-1.349 3.201h52.392Zm-376.47 49.587c0-4.453 1.19-7.87 3.572-10.252q.324-.324.673-.619 3.544-2.999 9.625-2.999h.371c4.422 0 7.839 1.206 10.251 3.618q.316.312.604.647l.001.002q3.013 3.508 3.013 9.603v.371c0 4.422-1.206 7.839-3.618 10.252-2.412 2.412-5.829 3.618-10.251 3.618h-.371q-6.081 0-9.625-2.999-.349-.295-.673-.619c-2.382-2.413-3.572-5.83-3.572-10.252v-.371Z"/></g></svg>